STARTFONT 2.1
FONT -FontForge-Boston-Regular-R-Normal--13-130-72-72-P-74-MacRoman-0
SIZE 13 72 72
FONTBOUNDINGBOX 18 13 0 -2
COMMENT "Generated by fontforge, http://fontforge.sourceforge.net"
STARTPROPERTIES 30
FOUNDRY "FontForge"
FAMILY_NAME "Boston"
WEIGHT_NAME "Regular"
SLANT "R"
SETWIDTH_NAME "Normal"
ADD_STYLE_NAME ""
PIXEL_SIZE 13
POINT_SIZE 130
RESOLUTION_X 72
RESOLUTION_Y 72
SPACING "P"
AVERAGE_WIDTH 74
CHARSET_REGISTRY "MacRoman"
CHARSET_ENCODING "0"
FONTNAME_REGISTRY ""
CHARSET_COLLECTIONS "MacRoman"
FONT_NAME "Boston"
FACE_NAME "Boston"
FONT_VERSION "001.000"
FONT_ASCENT 11
FONT_DESCENT 2
UNDERLINE_POSITION -1
UNDERLINE_THICKNESS 1
X_HEIGHT 5
CAP_HEIGHT 7
RAW_ASCENT 800
RAW_DESCENT 200
NORM_SPACE 6
AVG_LOWERCASE_WIDTH 75
AVG_UPPERCASE_WIDTH 88
ENDPROPERTIES
CHARS 227
STARTCHAR uni0000
ENCODING 0
SWIDTH 0 0
DWIDTH 0 0
BBX 1 1 0 0
BITMAP
00
ENDCHAR
STARTCHAR uni0009
ENCODING 9
SWIDTH 0 0
DWIDTH 0 0
BBX 1 1 0 0
BITMAP
00
ENDCHAR
STARTCHAR uni000A
ENCODING 10
SWIDTH 0 0
DWIDTH 0 0
BBX 1 1 0 0
BITMAP
00
ENDCHAR
STARTCHAR uni000B
ENCODING 11
SWIDTH 0 0
DWIDTH 0 0
BBX 1 1 0 0
BITMAP
00
ENDCHAR
STARTCHAR uni000C
ENCODING 12
SWIDTH 0 0
DWIDTH 0 0
BBX 1 1 0 0
BITMAP
00
ENDCHAR
STARTCHAR uni000D
ENCODING 13
SWIDTH 0 0
DWIDTH 0 0
BBX 1 1 0 0
BITMAP
00
ENDCHAR
STARTCHAR uni001F
ENCODING 31
SWIDTH 0 0
DWIDTH 0 0
BBX 1 1 0 0
BITMAP
00
ENDCHAR
STARTCHAR space
ENCODING 32
SWIDTH 461 0
DWIDTH 6 0
BBX 1 1 6 -2
BITMAP
00
ENDCHAR
STARTCHAR exclam
ENCODING 33
SWIDTH 461 0
DWIDTH 6 0
BBX 1 8 2 0
BITMAP
80
80
80
80
80
80
00
80
ENDCHAR
STARTCHAR quotedbl
ENCODING 34
SWIDTH 461 0
DWIDTH 6 0
BBX 3 3 2 5
BITMAP
A0
A0
A0
ENDCHAR
STARTCHAR numbersign
ENCODING 35
SWIDTH 615 0
DWIDTH 8 0
BBX 7 5 1 3
BITMAP
14
7E
28
FC
50
ENDCHAR
STARTCHAR dollar
ENCODING 36
SWIDTH 615 0
DWIDTH 8 0
BBX 6 10 1 -1
BITMAP
10
78
94
94
70
18
94
94
78
10
ENDCHAR
STARTCHAR percent
ENCODING 37
SWIDTH 692 0
DWIDTH 9 0
BBX 8 8 1 0
BITMAP
7F
92
94
68
16
29
49
46
ENDCHAR
STARTCHAR ampersand
ENCODING 38
SWIDTH 692 0
DWIDTH 9 0
BBX 8 8 1 0
BITMAP
30
48
48
31
31
4A
84
7A
ENDCHAR
STARTCHAR quotesingle
ENCODING 39
SWIDTH 307 0
DWIDTH 4 0
BBX 1 3 2 5
BITMAP
80
80
80
ENDCHAR
STARTCHAR parenleft
ENCODING 40
SWIDTH 461 0
DWIDTH 6 0
BBX 4 12 2 -2
BITMAP
10
20
40
40
80
80
80
80
40
40
20
10
ENDCHAR
STARTCHAR parenright
ENCODING 41
SWIDTH 461 0
DWIDTH 6 0
BBX 4 12 1 -2
BITMAP
80
40
20
20
10
10
10
10
20
20
40
80
ENDCHAR
STARTCHAR asterisk
ENCODING 42
SWIDTH 461 0
DWIDTH 6 0
BBX 5 5 1 3
BITMAP
20
A8
70
A8
20
ENDCHAR
STARTCHAR plus
ENCODING 43
SWIDTH 615 0
DWIDTH 8 0
BBX 5 5 2 1
BITMAP
20
20
F8
20
20
ENDCHAR
STARTCHAR comma
ENCODING 44
SWIDTH 461 0
DWIDTH 6 0
BBX 2 3 1 -2
BITMAP
40
40
80
ENDCHAR
STARTCHAR hyphen
ENCODING 45
SWIDTH 615 0
DWIDTH 8 0
BBX 6 1 1 3
BITMAP
FC
ENDCHAR
STARTCHAR period
ENCODING 46
SWIDTH 461 0
DWIDTH 6 0
BBX 1 1 2 0
BITMAP
80
ENDCHAR
STARTCHAR slash
ENCODING 47
SWIDTH 461 0
DWIDTH 6 0
BBX 5 12 1 -2
BITMAP
08
08
10
10
10
20
20
40
40
40
80
80
ENDCHAR
STARTCHAR zero
ENCODING 48
SWIDTH 538 0
DWIDTH 7 0
BBX 5 8 1 0
BITMAP
70
88
88
88
88
88
88
70
ENDCHAR
STARTCHAR one
ENCODING 49
SWIDTH 538 0
DWIDTH 7 0
BBX 5 8 1 0
BITMAP
20
60
A0
20
20
20
20
F8
ENDCHAR
STARTCHAR two
ENCODING 50
SWIDTH 538 0
DWIDTH 7 0
BBX 5 8 1 0
BITMAP
70
88
88
10
20
40
88
F8
ENDCHAR
STARTCHAR three
ENCODING 51
SWIDTH 538 0
DWIDTH 7 0
BBX 5 8 1 0
BITMAP
F8
90
20
70
08
08
88
70
ENDCHAR
STARTCHAR four
ENCODING 52
SWIDTH 538 0
DWIDTH 7 0
BBX 5 8 1 0
BITMAP
10
30
50
50
90
F8
10
38
ENDCHAR
STARTCHAR five
ENCODING 53
SWIDTH 538 0
DWIDTH 7 0
BBX 5 8 1 0
BITMAP
F0
80
80
F0
08
08
88
70
ENDCHAR
STARTCHAR six
ENCODING 54
SWIDTH 538 0
DWIDTH 7 0
BBX 5 8 1 0
BITMAP
30
40
80
F0
88
88
88
70
ENDCHAR
STARTCHAR seven
ENCODING 55
SWIDTH 538 0
DWIDTH 7 0
BBX 5 8 1 0
BITMAP
F8
88
10
10
20
20
40
40
ENDCHAR
STARTCHAR eight
ENCODING 56
SWIDTH 538 0
DWIDTH 7 0
BBX 5 8 1 0
BITMAP
70
88
88
70
88
88
88
70
ENDCHAR
STARTCHAR nine
ENCODING 57
SWIDTH 538 0
DWIDTH 7 0
BBX 5 8 1 0
BITMAP
70
88
88
88
78
08
10
60
ENDCHAR
STARTCHAR colon
ENCODING 58
SWIDTH 461 0
DWIDTH 6 0
BBX 1 5 2 0
BITMAP
80
00
00
00
80
ENDCHAR
STARTCHAR semicolon
ENCODING 59
SWIDTH 461 0
DWIDTH 6 0
BBX 2 7 1 -2
BITMAP
40
00
00
00
40
40
80
ENDCHAR
STARTCHAR less
ENCODING 60
SWIDTH 615 0
DWIDTH 8 0
BBX 6 5 1 1
BITMAP
0C
30
C0
30
0C
ENDCHAR
STARTCHAR equal
ENCODING 61
SWIDTH 615 0
DWIDTH 8 0
BBX 6 3 1 2
BITMAP
FC
00
FC
ENDCHAR
STARTCHAR greater
ENCODING 62
SWIDTH 615 0
DWIDTH 8 0
BBX 6 5 1 1
BITMAP
C0
30
0C
30
C0
ENDCHAR
STARTCHAR question
ENCODING 63
SWIDTH 538 0
DWIDTH 7 0
BBX 5 8 1 0
BITMAP
70
88
08
08
10
20
00
20
ENDCHAR
STARTCHAR at
ENCODING 64
SWIDTH 692 0
DWIDTH 9 0
BBX 8 8 1 -1
BITMAP
3C
42
99
A5
AD
96
40
3C
ENDCHAR
STARTCHAR A
ENCODING 65
SWIDTH 769 0
DWIDTH 10 0
BBX 9 8 1 0
BITMAP
0800
0800
1400
1400
2200
3E00
4100
E380
ENDCHAR
STARTCHAR B
ENCODING 66
SWIDTH 615 0
DWIDTH 8 0
BBX 7 8 1 0
BITMAP
F8
44
44
7C
42
42
42
FC
ENDCHAR
STARTCHAR C
ENCODING 67
SWIDTH 538 0
DWIDTH 7 0
BBX 6 8 1 0
BITMAP
3C
44
80
80
80
80
44
38
ENDCHAR
STARTCHAR D
ENCODING 68
SWIDTH 615 0
DWIDTH 8 0
BBX 7 8 1 0
BITMAP
F8
44
42
42
42
42
44
F8
ENDCHAR
STARTCHAR E
ENCODING 69
SWIDTH 615 0
DWIDTH 8 0
BBX 7 8 1 0
BITMAP
FE
42
48
78
48
40
42
FE
ENDCHAR
STARTCHAR F
ENCODING 70
SWIDTH 615 0
DWIDTH 8 0
BBX 7 8 1 0
BITMAP
FE
42
40
48
78
48
40
E0
ENDCHAR
STARTCHAR G
ENCODING 71
SWIDTH 615 0
DWIDTH 8 0
BBX 7 8 1 0
BITMAP
3C
44
80
80
8E
82
46
3A
ENDCHAR
STARTCHAR H
ENCODING 72
SWIDTH 692 0
DWIDTH 9 0
BBX 8 8 1 0
BITMAP
E7
42
42
7E
42
42
42
E7
ENDCHAR
STARTCHAR I
ENCODING 73
SWIDTH 384 0
DWIDTH 5 0
BBX 3 8 1 0
BITMAP
E0
40
40
40
40
40
40
E0
ENDCHAR
STARTCHAR J
ENCODING 74
SWIDTH 615 0
DWIDTH 8 0
BBX 7 8 1 0
BITMAP
0E
04
04
04
84
84
48
30
ENDCHAR
STARTCHAR K
ENCODING 75
SWIDTH 692 0
DWIDTH 9 0
BBX 8 8 1 0
BITMAP
E7
44
48
50
68
44
42
E7
ENDCHAR
STARTCHAR L
ENCODING 76
SWIDTH 615 0
DWIDTH 8 0
BBX 7 8 1 0
BITMAP
E0
40
40
40
40
40
42
FE
ENDCHAR
STARTCHAR M
ENCODING 77
SWIDTH 923 0
DWIDTH 12 0
BBX 11 8 1 0
BITMAP
E0E0
5140
5140
4A40
4A40
4440
4440
E0E0
ENDCHAR
STARTCHAR N
ENCODING 78
SWIDTH 769 0
DWIDTH 10 0
BBX 9 8 1 0
BITMAP
E380
5100
5100
4900
4900
4500
4500
E300
ENDCHAR
STARTCHAR O
ENCODING 79
SWIDTH 615 0
DWIDTH 8 0
BBX 7 8 1 0
BITMAP
38
44
82
82
82
82
44
38
ENDCHAR
STARTCHAR P
ENCODING 80
SWIDTH 615 0
DWIDTH 8 0
BBX 7 8 1 0
BITMAP
FC
42
42
42
7C
40
40
E0
ENDCHAR
STARTCHAR Q
ENCODING 81
SWIDTH 615 0
DWIDTH 8 0
BBX 7 9 1 -1
BITMAP
38
44
82
82
82
82
54
38
06
ENDCHAR
STARTCHAR R
ENCODING 82
SWIDTH 692 0
DWIDTH 9 0
BBX 8 8 1 0
BITMAP
FC
42
42
42
7C
48
44
E3
ENDCHAR
STARTCHAR S
ENCODING 83
SWIDTH 615 0
DWIDTH 8 0
BBX 7 8 1 0
BITMAP
7C
82
82
78
04
82
82
7C
ENDCHAR
STARTCHAR T
ENCODING 84
SWIDTH 615 0
DWIDTH 8 0
BBX 7 8 1 0
BITMAP
FE
92
10
10
10
10
10
38
ENDCHAR
STARTCHAR U
ENCODING 85
SWIDTH 769 0
DWIDTH 10 0
BBX 9 8 1 0
BITMAP
E380
4100
4100
4100
4100
4100
2200
1C00
ENDCHAR
STARTCHAR V
ENCODING 86
SWIDTH 769 0
DWIDTH 10 0
BBX 9 8 1 0
BITMAP
E380
4100
2200
2200
1400
1400
0800
0800
ENDCHAR
STARTCHAR W
ENCODING 87
SWIDTH 1076 0
DWIDTH 14 0
BBX 13 8 1 0
BITMAP
E038
4010
2220
2220
1540
1540
0880
0880
ENDCHAR
STARTCHAR X
ENCODING 88
SWIDTH 692 0
DWIDTH 9 0
BBX 8 8 1 0
BITMAP
E7
42
24
18
18
24
42
E7
ENDCHAR
STARTCHAR Y
ENCODING 89
SWIDTH 769 0
DWIDTH 10 0
BBX 9 8 1 0
BITMAP
E380
4100
2200
1400
0800
0800
0800
1C00
ENDCHAR
STARTCHAR Z
ENCODING 90
SWIDTH 615 0
DWIDTH 8 0
BBX 7 8 1 0
BITMAP
FE
84
08
10
20
40
82
FE
ENDCHAR
STARTCHAR bracketleft
ENCODING 91
SWIDTH 461 0
DWIDTH 6 0
BBX 3 12 3 -2
BITMAP
E0
80
80
80
80
80
80
80
80
80
80
E0
ENDCHAR
STARTCHAR backslash
ENCODING 92
SWIDTH 461 0
DWIDTH 6 0
BBX 5 12 1 -2
BITMAP
80
80
40
40
40
20
20
10
10
10
08
08
ENDCHAR
STARTCHAR bracketright
ENCODING 93
SWIDTH 461 0
DWIDTH 6 0
BBX 3 12 1 -2
BITMAP
E0
20
20
20
20
20
20
20
20
20
20
E0
ENDCHAR
STARTCHAR asciicircum
ENCODING 94
SWIDTH 461 0
DWIDTH 6 0
BBX 3 2 2 7
BITMAP
40
A0
ENDCHAR
STARTCHAR underscore
ENCODING 95
SWIDTH 538 0
DWIDTH 7 0
BBX 7 1 0 0
BITMAP
FE
ENDCHAR
STARTCHAR grave
ENCODING 96
SWIDTH 307 0
DWIDTH 4 0
BBX 2 2 1 7
BITMAP
80
40
ENDCHAR
STARTCHAR a
ENCODING 97
SWIDTH 615 0
DWIDTH 8 0
BBX 7 6 1 0
BITMAP
78
84
7C
84
8C
76
ENDCHAR
STARTCHAR b
ENCODING 98
SWIDTH 615 0
DWIDTH 8 0
BBX 7 8 1 0
BITMAP
C0
40
5C
62
42
42
62
DC
ENDCHAR
STARTCHAR c
ENCODING 99
SWIDTH 538 0
DWIDTH 7 0
BBX 6 6 1 0
BITMAP
78
84
80
80
84
78
ENDCHAR
STARTCHAR d
ENCODING 100
SWIDTH 615 0
DWIDTH 8 0
BBX 7 8 1 0
BITMAP
0C
04
74
8C
84
84
8C
76
ENDCHAR
STARTCHAR e
ENCODING 101
SWIDTH 538 0
DWIDTH 7 0
BBX 6 6 1 0
BITMAP
78
84
FC
80
84
78
ENDCHAR
STARTCHAR f
ENCODING 102
SWIDTH 384 0
DWIDTH 5 0
BBX 4 8 1 0
BITMAP
30
40
F0
40
40
40
40
E0
ENDCHAR
STARTCHAR g
ENCODING 103
SWIDTH 538 0
DWIDTH 7 0
BBX 6 8 1 -2
BITMAP
74
88
88
70
80
78
84
78
ENDCHAR
STARTCHAR h
ENCODING 104
SWIDTH 692 0
DWIDTH 9 0
BBX 8 8 1 0
BITMAP
C0
40
5C
62
42
42
42
E7
ENDCHAR
STARTCHAR i
ENCODING 105
SWIDTH 307 0
DWIDTH 4 0
BBX 3 8 1 0
BITMAP
40
00
C0
40
40
40
40
E0
ENDCHAR
STARTCHAR j
ENCODING 106
SWIDTH 384 0
DWIDTH 5 0
BBX 4 10 0 -2
BITMAP
10
00
30
10
10
10
10
10
90
60
ENDCHAR
STARTCHAR k
ENCODING 107
SWIDTH 615 0
DWIDTH 8 0
BBX 7 8 1 0
BITMAP
C0
40
4C
50
60
50
48
EE
ENDCHAR
STARTCHAR l
ENCODING 108
SWIDTH 307 0
DWIDTH 4 0
BBX 3 8 1 0
BITMAP
C0
40
40
40
40
40
40
E0
ENDCHAR
STARTCHAR m
ENCODING 109
SWIDTH 1076 0
DWIDTH 14 0
BBX 13 6 1 0
BITMAP
DCE0
6310
4210
4210
4210
E738
ENDCHAR
STARTCHAR n
ENCODING 110
SWIDTH 692 0
DWIDTH 9 0
BBX 8 6 1 0
BITMAP
DC
62
42
42
42
E7
ENDCHAR
STARTCHAR o
ENCODING 111
SWIDTH 538 0
DWIDTH 7 0
BBX 6 6 1 0
BITMAP
78
84
84
84
84
78
ENDCHAR
STARTCHAR p
ENCODING 112
SWIDTH 615 0
DWIDTH 8 0
BBX 7 8 1 -2
BITMAP
DC
62
42
42
62
5C
40
E0
ENDCHAR
STARTCHAR q
ENCODING 113
SWIDTH 615 0
DWIDTH 8 0
BBX 7 8 1 -2
BITMAP
76
8C
84
84
8C
74
04
0E
ENDCHAR
STARTCHAR r
ENCODING 114
SWIDTH 538 0
DWIDTH 7 0
BBX 6 6 1 0
BITMAP
DC
60
40
40
40
E0
ENDCHAR
STARTCHAR s
ENCODING 115
SWIDTH 461 0
DWIDTH 6 0
BBX 5 6 1 0
BITMAP
70
88
60
10
88
70
ENDCHAR
STARTCHAR t
ENCODING 116
SWIDTH 461 0
DWIDTH 6 0
BBX 5 8 1 0
BITMAP
40
40
F0
40
40
40
48
30
ENDCHAR
STARTCHAR u
ENCODING 117
SWIDTH 692 0
DWIDTH 9 0
BBX 8 6 1 0
BITMAP
C6
42
42
42
46
3B
ENDCHAR
STARTCHAR v
ENCODING 118
SWIDTH 692 0
DWIDTH 9 0
BBX 8 6 1 0
BITMAP
E7
42
42
24
24
18
ENDCHAR
STARTCHAR w
ENCODING 119
SWIDTH 923 0
DWIDTH 12 0
BBX 11 6 1 0
BITMAP
E0E0
4440
2480
2A80
1100
1100
ENDCHAR
STARTCHAR x
ENCODING 120
SWIDTH 615 0
DWIDTH 8 0
BBX 7 6 1 0
BITMAP
EE
44
38
28
44
EE
ENDCHAR
STARTCHAR y
ENCODING 121
SWIDTH 692 0
DWIDTH 9 0
BBX 8 8 1 -2
BITMAP
E7
42
42
24
14
08
10
60
ENDCHAR
STARTCHAR z
ENCODING 122
SWIDTH 538 0
DWIDTH 7 0
BBX 6 6 1 0
BITMAP
FC
84
18
60
84
FC
ENDCHAR
STARTCHAR braceleft
ENCODING 123
SWIDTH 538 0
DWIDTH 7 0
BBX 5 12 2 -2
BITMAP
18
20
20
20
20
C0
20
20
20
20
20
18
ENDCHAR
STARTCHAR bar
ENCODING 124
SWIDTH 153 0
DWIDTH 2 0
BBX 1 12 1 -2
BITMAP
80
80
80
80
80
80
80
80
80
80
80
80
ENDCHAR
STARTCHAR braceright
ENCODING 125
SWIDTH 538 0
DWIDTH 7 0
BBX 5 12 1 -2
BITMAP
C0
20
20
20
20
18
20
20
20
20
20
C0
ENDCHAR
STARTCHAR asciitilde
ENCODING 126
SWIDTH 615 0
DWIDTH 8 0
BBX 6 2 1 3
BITMAP
64
98
ENDCHAR
STARTCHAR uni007F
ENCODING 127
SWIDTH 0 0
DWIDTH 0 0
BBX 1 1 0 -2
BITMAP
00
ENDCHAR
STARTCHAR Adieresis
ENCODING 128
SWIDTH 769 0
DWIDTH 10 0
BBX 9 10 1 0
BITMAP
2200
0000
0800
0800
1400
1400
2200
3E00
4100
E380
ENDCHAR
STARTCHAR Aring
ENCODING 129
SWIDTH 769 0
DWIDTH 10 0
BBX 9 11 1 0
BITMAP
0800
1400
0800
0800
0800
1400
1400
2200
3E00
4100
E380
ENDCHAR
STARTCHAR Ccedilla
ENCODING 130
SWIDTH 538 0
DWIDTH 7 0
BBX 6 10 1 -2
BITMAP
3C
44
80
80
80
80
44
38
08
10
ENDCHAR
STARTCHAR Eacute
ENCODING 131
SWIDTH 615 0
DWIDTH 8 0
BBX 7 11 1 0
BITMAP
08
10
00
FE
42
48
78
48
40
42
FE
ENDCHAR
STARTCHAR Ntilde
ENCODING 132
SWIDTH 769 0
DWIDTH 10 0
BBX 9 11 1 0
BITMAP
3200
4C00
0000
E380
5100
4900
4900
4500
4500
4300
E300
ENDCHAR
STARTCHAR Odieresis
ENCODING 133
SWIDTH 615 0
DWIDTH 8 0
BBX 7 10 1 0
BITMAP
44
00
38
44
82
82
82
82
44
38
ENDCHAR
STARTCHAR Udieresis
ENCODING 134
SWIDTH 769 0
DWIDTH 10 0
BBX 9 10 1 0
BITMAP
2200
0000
E380
4100
4100
4100
4100
4100
2200
1C00
ENDCHAR
STARTCHAR aacute
ENCODING 135
SWIDTH 615 0
DWIDTH 8 0
BBX 7 9 1 0
BITMAP
10
20
00
78
84
7C
84
8C
76
ENDCHAR
STARTCHAR agrave
ENCODING 136
SWIDTH 615 0
DWIDTH 8 0
BBX 7 9 1 0
BITMAP
20
10
00
78
84
7C
84
8C
76
ENDCHAR
STARTCHAR acircumflex
ENCODING 137
SWIDTH 615 0
DWIDTH 8 0
BBX 7 9 1 0
BITMAP
10
28
00
78
84
7C
84
8C
76
ENDCHAR
STARTCHAR adieresis
ENCODING 138
SWIDTH 615 0
DWIDTH 8 0
BBX 7 8 1 0
BITMAP
48
00
78
84
7C
84
8C
76
ENDCHAR
STARTCHAR atilde
ENCODING 139
SWIDTH 615 0
DWIDTH 8 0
BBX 7 9 1 0
BITMAP
64
98
00
7C
84
7C
84
8C
76
ENDCHAR
STARTCHAR aring
ENCODING 140
SWIDTH 615 0
DWIDTH 8 0
BBX 7 10 1 0
BITMAP
10
28
10
00
78
84
7C
84
8C
76
ENDCHAR
STARTCHAR ccedilla
ENCODING 141
SWIDTH 538 0
DWIDTH 7 0
BBX 6 8 1 -2
BITMAP
78
84
80
80
84
78
10
20
ENDCHAR
STARTCHAR eacute
ENCODING 142
SWIDTH 538 0
DWIDTH 7 0
BBX 6 9 1 0
BITMAP
10
20
00
78
84
FC
80
84
78
ENDCHAR
STARTCHAR egrave
ENCODING 143
SWIDTH 538 0
DWIDTH 7 0
BBX 6 9 1 0
BITMAP
20
10
00
78
84
FC
80
84
78
ENDCHAR
STARTCHAR ecircumflex
ENCODING 144
SWIDTH 538 0
DWIDTH 7 0
BBX 6 9 1 0
BITMAP
10
28
00
78
84
FC
80
84
78
ENDCHAR
STARTCHAR edieresis
ENCODING 145
SWIDTH 538 0
DWIDTH 7 0
BBX 6 8 1 0
BITMAP
48
00
78
84
FC
80
84
78
ENDCHAR
STARTCHAR iacute
ENCODING 146
SWIDTH 307 0
DWIDTH 4 0
BBX 3 9 1 0
BITMAP
40
80
00
C0
40
40
40
40
E0
ENDCHAR
STARTCHAR igrave
ENCODING 147
SWIDTH 307 0
DWIDTH 4 0
BBX 3 9 1 0
BITMAP
80
40
00
C0
40
40
40
40
E0
ENDCHAR
STARTCHAR icircumflex
ENCODING 148
SWIDTH 307 0
DWIDTH 4 0
BBX 3 9 1 0
BITMAP
40
A0
00
C0
40
40
40
40
E0
ENDCHAR
STARTCHAR idieresis
ENCODING 149
SWIDTH 307 0
DWIDTH 4 0
BBX 3 8 1 0
BITMAP
A0
00
C0
40
40
40
40
E0
ENDCHAR
STARTCHAR ntilde
ENCODING 150
SWIDTH 692 0
DWIDTH 9 0
BBX 8 9 1 0
BITMAP
32
4C
00
DC
62
42
42
42
E7
ENDCHAR
STARTCHAR oacute
ENCODING 151
SWIDTH 538 0
DWIDTH 7 0
BBX 6 9 1 0
BITMAP
10
20
00
78
84
84
84
84
78
ENDCHAR
STARTCHAR ograve
ENCODING 152
SWIDTH 538 0
DWIDTH 7 0
BBX 6 9 1 0
BITMAP
20
10
00
78
84
84
84
84
78
ENDCHAR
STARTCHAR ocircumflex
ENCODING 153
SWIDTH 538 0
DWIDTH 7 0
BBX 6 9 1 0
BITMAP
10
28
00
78
84
84
84
84
78
ENDCHAR
STARTCHAR odieresis
ENCODING 154
SWIDTH 538 0
DWIDTH 7 0
BBX 6 8 1 0
BITMAP
48
00
78
84
84
84
84
78
ENDCHAR
STARTCHAR otilde
ENCODING 155
SWIDTH 538 0
DWIDTH 7 0
BBX 6 9 1 0
BITMAP
64
98
00
78
84
84
84
84
78
ENDCHAR
STARTCHAR uacute
ENCODING 156
SWIDTH 692 0
DWIDTH 9 0
BBX 8 9 1 0
BITMAP
08
10
00
C6
42
42
42
46
3B
ENDCHAR
STARTCHAR ugrave
ENCODING 157
SWIDTH 692 0
DWIDTH 9 0
BBX 8 9 1 0
BITMAP
10
08
00
C6
42
42
42
46
3B
ENDCHAR
STARTCHAR ucircumflex
ENCODING 158
SWIDTH 692 0
DWIDTH 9 0
BBX 8 9 1 0
BITMAP
10
28
00
C6
42
42
42
46
3B
ENDCHAR
STARTCHAR udieresis
ENCODING 159
SWIDTH 692 0
DWIDTH 9 0
BBX 8 8 1 0
BITMAP
44
00
C6
42
42
42
46
3B
ENDCHAR
STARTCHAR dagger
ENCODING 160
SWIDTH 769 0
DWIDTH 10 0
BBX 9 11 1 0
BITMAP
0400
0800
0000
E380
4100
2200
1400
0800
0800
0800
1C00
ENDCHAR
STARTCHAR degree
ENCODING 161
SWIDTH 384 0
DWIDTH 5 0
BBX 4 4 1 4
BITMAP
60
90
90
60
ENDCHAR
STARTCHAR cent
ENCODING 162
SWIDTH 461 0
DWIDTH 6 0
BBX 5 10 1 -1
BITMAP
20
20
70
A8
A0
A0
A8
70
20
20
ENDCHAR
STARTCHAR sterling
ENCODING 163
SWIDTH 615 0
DWIDTH 8 0
BBX 6 8 1 0
BITMAP
30
48
40
E0
40
40
44
F8
ENDCHAR
STARTCHAR section
ENCODING 164
SWIDTH 538 0
DWIDTH 7 0
BBX 5 12 1 -2
BITMAP
70
88
88
40
A0
90
48
28
10
88
88
70
ENDCHAR
STARTCHAR bullet
ENCODING 165
SWIDTH 461 0
DWIDTH 6 0
BBX 4 4 1 2
BITMAP
60
F0
F0
60
ENDCHAR
STARTCHAR paragraph
ENCODING 166
SWIDTH 692 0
DWIDTH 9 0
BBX 8 12 1 -2
BITMAP
7F
FA
FA
FA
FA
7A
0A
0A
0A
0A
0A
0A
ENDCHAR
STARTCHAR germandbls
ENCODING 167
SWIDTH 538 0
DWIDTH 7 0
BBX 6 8 1 0
BITMAP
30
48
D0
48
44
44
64
D8
ENDCHAR
STARTCHAR registered
ENCODING 168
SWIDTH 615 0
DWIDTH 8 0
BBX 7 8 1 0
BITMAP
38
10
7C
92
92
7C
10
38
ENDCHAR
STARTCHAR copyright
ENCODING 169
SWIDTH 692 0
DWIDTH 9 0
BBX 8 8 1 0
BITMAP
3C
42
99
A1
A1
99
42
3C
ENDCHAR
STARTCHAR trademark
ENCODING 170
SWIDTH 769 0
DWIDTH 10 0
BBX 9 4 1 4
BITMAP
E880
4D80
4A80
4880
ENDCHAR
STARTCHAR acute
ENCODING 171
SWIDTH 230 0
DWIDTH 3 0
BBX 2 2 1 7
BITMAP
40
80
ENDCHAR
STARTCHAR dieresis
ENCODING 172
SWIDTH 384 0
DWIDTH 5 0
BBX 4 1 1 8
BITMAP
90
ENDCHAR
STARTCHAR notequal
ENCODING 173
SWIDTH 615 0
DWIDTH 8 0
BBX 6 7 1 0
BITMAP
04
08
FC
30
FC
40
80
ENDCHAR
STARTCHAR AE
ENCODING 174
SWIDTH 923 0
DWIDTH 12 0
BBX 11 8 1 0
BITMAP
0FE0
0C20
1400
1480
3F80
2480
4420
EFE0
ENDCHAR
STARTCHAR Oslash
ENCODING 175
SWIDTH 615 0
DWIDTH 8 0
BBX 7 8 1 0
BITMAP
3A
44
8A
92
92
A2
44
B8
ENDCHAR
STARTCHAR infinity
ENCODING 176
SWIDTH 923 0
DWIDTH 12 0
BBX 11 6 1 0
BITMAP
7BC0
8420
8420
8420
8420
7BC0
ENDCHAR
STARTCHAR plusminus
ENCODING 177
SWIDTH 615 0
DWIDTH 8 0
BBX 5 7 2 1
BITMAP
20
20
F8
20
20
00
F8
ENDCHAR
STARTCHAR lessequal
ENCODING 178
SWIDTH 615 0
DWIDTH 8 0
BBX 6 7 1 1
BITMAP
0C
30
C0
30
0C
00
FC
ENDCHAR
STARTCHAR greaterequal
ENCODING 179
SWIDTH 615 0
DWIDTH 8 0
BBX 6 7 1 1
BITMAP
C0
30
0C
30
C0
00
FC
ENDCHAR
STARTCHAR yen
ENCODING 180
SWIDTH 615 0
DWIDTH 8 0
BBX 7 8 1 0
BITMAP
82
44
28
10
7C
10
7C
10
ENDCHAR
STARTCHAR mu
ENCODING 181
SWIDTH 538 0
DWIDTH 7 0
BBX 6 7 1 -2
BITMAP
88
88
88
C8
B4
80
80
ENDCHAR
STARTCHAR partialdiff
ENCODING 182
SWIDTH 461 0
DWIDTH 6 0
BBX 5 8 1 0
BITMAP
30
40
20
50
88
88
88
70
ENDCHAR
STARTCHAR summation
ENCODING 183
SWIDTH 615 0
DWIDTH 8 0
BBX 7 8 1 0
BITMAP
FE
42
20
10
10
20
42
FE
ENDCHAR
STARTCHAR product
ENCODING 184
SWIDTH 692 0
DWIDTH 9 0
BBX 8 8 1 0
BITMAP
FF
42
42
42
42
42
42
E7
ENDCHAR
STARTCHAR pi
ENCODING 185
SWIDTH 615 0
DWIDTH 8 0
BBX 7 5 1 0
BITMAP
7E
A4
24
24
42
ENDCHAR
STARTCHAR integral
ENCODING 186
SWIDTH 461 0
DWIDTH 6 0
BBX 5 10 1 -2
BITMAP
30
48
88
B0
88
88
88
B0
80
80
ENDCHAR
STARTCHAR ordfeminine
ENCODING 187
SWIDTH 384 0
DWIDTH 5 0
BBX 4 9 1 1
BITMAP
80
80
80
E0
90
90
90
A0
C0
ENDCHAR
STARTCHAR ordmasculine
ENCODING 188
SWIDTH 538 0
DWIDTH 7 0
BBX 5 10 1 0
BITMAP
10
50
58
70
D0
58
70
D0
50
40
ENDCHAR
STARTCHAR Omega
ENCODING 189
SWIDTH 615 0
DWIDTH 8 0
BBX 7 8 1 0
BITMAP
38
44
82
82
82
44
28
EE
ENDCHAR
STARTCHAR ae
ENCODING 190
SWIDTH 923 0
DWIDTH 12 0
BBX 11 6 1 0
BITMAP
7BC0
8420
7FE0
8400
8C20
73C0
ENDCHAR
STARTCHAR oslash
ENCODING 191
SWIDTH 538 0
DWIDTH 7 0
BBX 6 6 1 0
BITMAP
7C
8C
94
A4
C4
F8
ENDCHAR
STARTCHAR questiondown
ENCODING 192
SWIDTH 461 0
DWIDTH 6 0
BBX 5 8 1 -2
BITMAP
20
00
20
40
80
80
88
70
ENDCHAR
STARTCHAR exclamdown
ENCODING 193
SWIDTH 307 0
DWIDTH 4 0
BBX 1 8 2 -2
BITMAP
80
00
80
80
80
80
80
80
ENDCHAR
STARTCHAR logicalnot
ENCODING 194
SWIDTH 615 0
DWIDTH 8 0
BBX 7 10 1 -2
BITMAP
10
10
10
92
92
92
54
38
10
10
ENDCHAR
STARTCHAR radical
ENCODING 195
SWIDTH 615 0
DWIDTH 8 0
BBX 7 13 1 -2
BITMAP
02
02
02
04
04
04
08
08
88
90
50
50
20
ENDCHAR
STARTCHAR florin
ENCODING 196
SWIDTH 461 0
DWIDTH 6 0
BBX 5 10 1 -2
BITMAP
20
20
20
70
A8
A8
A8
70
20
20
ENDCHAR
STARTCHAR approxequal
ENCODING 197
SWIDTH 615 0
DWIDTH 8 0
BBX 6 5 1 1
BITMAP
64
98
00
64
98
ENDCHAR
STARTCHAR Delta
ENCODING 198
SWIDTH 769 0
DWIDTH 10 0
BBX 9 8 1 0
BITMAP
0800
0800
1400
2200
2200
4100
8080
FF80
ENDCHAR
STARTCHAR guillemotleft
ENCODING 199
SWIDTH 538 0
DWIDTH 7 0
BBX 6 5 1 1
BITMAP
24
48
90
48
24
ENDCHAR
STARTCHAR guillemotright
ENCODING 200
SWIDTH 538 0
DWIDTH 7 0
BBX 6 5 1 1
BITMAP
90
48
24
48
90
ENDCHAR
STARTCHAR ellipsis
ENCODING 201
SWIDTH 1692 0
DWIDTH 22 0
BBX 15 1 3 0
BITMAP
8102
ENDCHAR
STARTCHAR uni00A0
ENCODING 202
SWIDTH 76 0
DWIDTH 1 0
BBX 1 1 1 -2
BITMAP
00
ENDCHAR
STARTCHAR Agrave
ENCODING 203
SWIDTH 923 0
DWIDTH 12 0
BBX 10 10 1 0
BITMAP
4200
C200
4400
4400
4BC0
4880
1180
1040
2240
2180
ENDCHAR
STARTCHAR Atilde
ENCODING 204
SWIDTH 923 0
DWIDTH 12 0
BBX 11 10 1 0
BITMAP
F100
2100
6200
1200
9440
64C0
0940
0BE0
1040
1040
ENDCHAR
STARTCHAR Otilde
ENCODING 205
SWIDTH 615 0
DWIDTH 8 0
BBX 7 11 1 0
BITMAP
64
98
00
38
44
82
82
82
82
44
38
ENDCHAR
STARTCHAR OE
ENCODING 206
SWIDTH 1000 0
DWIDTH 13 0
BBX 12 8 1 0
BITMAP
3BF0
4610
8240
83C0
8240
8200
4610
3BF0
ENDCHAR
STARTCHAR oe
ENCODING 207
SWIDTH 923 0
DWIDTH 12 0
BBX 11 6 1 0
BITMAP
7BC0
8420
87E0
8400
8420
7BC0
ENDCHAR
STARTCHAR endash
ENCODING 208
SWIDTH 384 0
DWIDTH 5 0
BBX 3 1 1 3
BITMAP
E0
ENDCHAR
STARTCHAR emdash
ENCODING 209
SWIDTH 1076 0
DWIDTH 14 0
BBX 11 1 2 3
BITMAP
FFE0
ENDCHAR
STARTCHAR quotedblleft
ENCODING 210
SWIDTH 538 0
DWIDTH 7 0
BBX 5 3 1 5
BITMAP
48
90
D8
ENDCHAR
STARTCHAR quotedblright
ENCODING 211
SWIDTH 538 0
DWIDTH 7 0
BBX 5 3 1 5
BITMAP
D8
48
90
ENDCHAR
STARTCHAR quoteleft
ENCODING 212
SWIDTH 307 0
DWIDTH 4 0
BBX 2 3 1 5
BITMAP
40
80
C0
ENDCHAR
STARTCHAR quoteright
ENCODING 213
SWIDTH 307 0
DWIDTH 4 0
BBX 2 3 1 5
BITMAP
C0
40
80
ENDCHAR
STARTCHAR divide
ENCODING 214
SWIDTH 615 0
DWIDTH 8 0
BBX 5 5 2 1
BITMAP
20
00
F8
00
20
ENDCHAR
STARTCHAR lozenge
ENCODING 215
SWIDTH 615 0
DWIDTH 8 0
BBX 5 5 2 1
BITMAP
88
50
20
50
88
ENDCHAR
STARTCHAR ydieresis
ENCODING 216
SWIDTH 692 0
DWIDTH 9 0
BBX 8 10 1 -2
BITMAP
24
00
E7
42
42
24
14
08
10
60
ENDCHAR
STARTCHAR Ydieresis
ENCODING 217
SWIDTH 615 0
DWIDTH 8 0
BBX 6 4 1 2
BITMAP
64
98
00
FC
ENDCHAR
STARTCHAR fraction
ENCODING 218
SWIDTH 923 0
DWIDTH 12 0
BBX 10 6 1 1
BITMAP
0080
FFC0
0080
4000
FFC0
4000
ENDCHAR
STARTCHAR currency
ENCODING 219
SWIDTH 923 0
DWIDTH 12 0
BBX 10 10 1 0
BITMAP
4200
C200
4400
4400
4980
4A40
1080
1100
2200
23C0
ENDCHAR
STARTCHAR guilsinglleft
ENCODING 220
SWIDTH 615 0
DWIDTH 8 0
BBX 7 8 1 0
BITMAP
F8
44
42
E2
42
42
44
F8
ENDCHAR
STARTCHAR guilsinglright
ENCODING 221
SWIDTH 538 0
DWIDTH 7 0
BBX 6 8 1 0
BITMAP
68
10
28
78
84
84
84
78
ENDCHAR
STARTCHAR uniFB01
ENCODING 222
SWIDTH 538 0
DWIDTH 7 0
BBX 6 8 1 0
BITMAP
C0
78
44
44
44
78
40
E0
ENDCHAR
STARTCHAR uniFB02
ENCODING 223
SWIDTH 615 0
DWIDTH 8 0
BBX 7 10 1 -2
BITMAP
C0
40
5C
62
42
42
62
5C
40
E0
ENDCHAR
STARTCHAR daggerdbl
ENCODING 224
SWIDTH 692 0
DWIDTH 9 0
BBX 8 11 1 -2
BITMAP
08
10
00
E7
42
42
24
14
08
10
60
ENDCHAR
STARTCHAR periodcentered
ENCODING 225
SWIDTH 923 0
DWIDTH 12 0
BBX 10 3 1 2
BITMAP
0080
FFC0
0080
ENDCHAR
STARTCHAR quotesinglbase
ENCODING 226
SWIDTH 923 0
DWIDTH 12 0
BBX 10 3 1 2
BITMAP
4000
FFC0
4000
ENDCHAR
STARTCHAR quotedblbase
ENCODING 227
SWIDTH 615 0
DWIDTH 8 0
BBX 7 8 1 0
BITMAP
FE
82
00
38
38
00
82
FE
ENDCHAR
STARTCHAR perthousand
ENCODING 228
SWIDTH 384 0
DWIDTH 5 0
BBX 4 5 1 0
BITMAP
70
80
E0
80
70
ENDCHAR
STARTCHAR Acircumflex
ENCODING 229
SWIDTH 923 0
DWIDTH 12 0
BBX 10 10 1 0
BITMAP
4200
C200
4400
4400
4880
4980
1280
17C0
2080
2080
ENDCHAR
STARTCHAR Ecircumflex
ENCODING 230
SWIDTH 461 0
DWIDTH 6 0
BBX 5 5 1 0
BITMAP
78
A0
20
20
10
ENDCHAR
STARTCHAR Aacute
ENCODING 231
SWIDTH 769 0
DWIDTH 10 0
BBX 9 11 1 0
BITMAP
0400
0800
0000
0800
0800
1400
1400
2200
3E00
4100
E380
ENDCHAR
STARTCHAR Edieresis
ENCODING 232
SWIDTH 692 0
DWIDTH 9 0
BBX 8 8 1 0
BITMAP
3C
42
81
AD
B5
81
42
3C
ENDCHAR
STARTCHAR Egrave
ENCODING 233
SWIDTH 769 0
DWIDTH 10 0
BBX 9 8 1 0
BITMAP
9C80
4900
4900
2A00
1C00
0800
0800
1C00
ENDCHAR
STARTCHAR Iacute
ENCODING 234
SWIDTH 384 0
DWIDTH 5 0
BBX 3 11 1 0
BITMAP
20
40
00
E0
40
40
40
40
40
40
E0
ENDCHAR
STARTCHAR Icircumflex
ENCODING 235
SWIDTH 769 0
DWIDTH 10 0
BBX 9 5 1 0
BITMAP
4100
8080
8880
8880
7700
ENDCHAR
STARTCHAR Idieresis
ENCODING 236
SWIDTH 538 0
DWIDTH 7 0
BBX 6 5 1 0
BITMAP
64
94
88
94
64
ENDCHAR
STARTCHAR Igrave
ENCODING 237
SWIDTH 538 0
DWIDTH 7 0
BBX 6 7 1 -2
BITMAP
44
A4
28
28
10
10
60
ENDCHAR
STARTCHAR Oacute
ENCODING 238
SWIDTH 615 0
DWIDTH 8 0
BBX 7 11 1 0
BITMAP
08
10
00
38
44
82
82
82
82
44
38
ENDCHAR
STARTCHAR Ocircumflex
ENCODING 239
SWIDTH 615 0
DWIDTH 8 0
BBX 7 8 1 0
BITMAP
FE
42
40
40
40
40
40
E0
ENDCHAR
STARTCHAR NameMe.240
ENCODING 240
SWIDTH 461 0
DWIDTH 6 0
BBX 5 5 1 0
BITMAP
88
50
60
50
48
ENDCHAR
STARTCHAR Ograve
ENCODING 241
SWIDTH 538 0
DWIDTH 7 0
BBX 6 8 1 0
BITMAP
C0
20
10
28
48
44
84
84
ENDCHAR
STARTCHAR Uacute
ENCODING 242
SWIDTH 769 0
DWIDTH 10 0
BBX 9 11 1 0
BITMAP
0400
0800
0000
E380
4100
4100
4100
4100
4100
2200
1C00
ENDCHAR
STARTCHAR Ucircumflex
ENCODING 243
SWIDTH 461 0
DWIDTH 6 0
BBX 5 10 1 -2
BITMAP
88
70
20
40
40
80
80
70
08
30
ENDCHAR
STARTCHAR Ugrave
ENCODING 244
SWIDTH 538 0
DWIDTH 7 0
BBX 6 7 1 -2
BITMAP
44
A8
28
10
30
54
88
ENDCHAR
STARTCHAR dotlessi
ENCODING 245
SWIDTH 538 0
DWIDTH 7 0
BBX 6 5 1 0
BITMAP
88
44
44
44
38
ENDCHAR
STARTCHAR circumflex
ENCODING 246
SWIDTH 692 0
DWIDTH 9 0
BBX 8 8 1 0
BITMAP
66
99
91
10
10
10
10
38
ENDCHAR
STARTCHAR tilde
ENCODING 247
SWIDTH 461 0
DWIDTH 6 0
BBX 5 5 1 0
BITMAP
88
48
48
50
60
ENDCHAR
STARTCHAR macron
ENCODING 248
SWIDTH 384 0
DWIDTH 5 0
BBX 4 9 1 1
BITMAP
80
90
B0
D0
90
B0
D0
90
10
ENDCHAR
STARTCHAR breve
ENCODING 249
SWIDTH 615 0
DWIDTH 8 0
BBX 5 5 2 1
BITMAP
F8
00
F8
00
F8
ENDCHAR
STARTCHAR dotaccent
ENCODING 250
SWIDTH 538 0
DWIDTH 7 0
BBX 6 7 1 -2
BITMAP
B8
44
44
44
44
04
04
ENDCHAR
STARTCHAR ring
ENCODING 251
SWIDTH 307 0
DWIDTH 4 0
BBX 3 5 1 0
BITMAP
80
80
80
A0
40
ENDCHAR
ENDFONT
